<svg xmlns="http://www.w3.org/2000/svg" viewBox="0 0 522.82 98.52"><defs><style>.cls-1-0{fill:#fff;}</style></defs><title>ikenk</title><g id="レイヤー_2" data-name="レイヤー 2"><g id="レイヤー_1-2" data-name="レイヤー 1"><path class="cls-1-0" d="M120.62,98.52a6.81,6.81,0,0,1-3.22-.81l-.18-.1h0l-.75-.44-1.31-.78L108,92.17l-3.35-2-1.85-1.07-.13-.08a13.47,13.47,0,0,0-7-1.9c-7.78,0-19.06-1.26-28.51-7.16a34,34,0,0,1-3.73-2.7,74.21,74.21,0,0,1-15.3,1.55A15.54,15.54,0,0,0,40,81.06l-2.16,1.25-3.76,2.21-8,4.74-1.75,1-.51.29h0l-.22.12a7.42,7.42,0,0,1-7.89-.61L15.51,90a7.31,7.31,0,0,1-2.68-5.65A7,7,0,0,1,13,82.66h0c.18-.9.73-3.25,2.4-10.26A37.19,37.19,0,0,1,4.5,59.73,41.13,41.13,0,0,1,0,40.38,37.9,37.9,0,0,1,3.61,24,37.53,37.53,0,0,1,13.79,11C22.53,3.81,34.4,0,48.12,0h0C62.31,0,74.42,3.92,83.19,11.33a37.94,37.94,0,0,1,5.26,5.41,63.41,63.41,0,0,1,7.23-.41h0c12.28,0,22.92,3.41,30.76,9.87a33.72,33.72,0,0,1,9.14,11.63h0a34.06,34.06,0,0,1,3.25,14.76,36.92,36.92,0,0,1-4,17.37,33.37,33.37,0,0,1-9.66,11.26c1.43,6,1.92,8.1,2.09,8.94h0a6.6,6.6,0,0,1,.18,1.58,6.81,6.81,0,0,1-2.66,5.37l-.1.07A6.85,6.85,0,0,1,120.62,98.52Zm-.48-5.93a1,1,0,0,0,1.07-.06l0,0a1,1,0,0,0,.39-.79.88.88,0,0,0,0-.22l-.08-.34c-.31-1.34-1.55-6.64-2.47-10.5l-.47-2,1.67-1.12a28,28,0,0,0,9.41-10.31A31.2,31.2,0,0,0,133,52.61a28.32,28.32,0,0,0-2.69-12.27h0a28,28,0,0,0-7.59-9.64c-6.79-5.6-16.15-8.55-27.07-8.55h0a56.67,56.67,0,0,0-8.11.57L85.82,23l-1-1.42a32.18,32.18,0,0,0-5.35-5.77c-7.7-6.52-18.53-10-31.31-10h0c-12.35,0-22.95,3.35-30.64,9.69a31.77,31.77,0,0,0-8.63,11A32.17,32.17,0,0,0,5.8,40.38,35.41,35.41,0,0,0,9.63,57,31.88,31.88,0,0,0,20.32,68.75L22,69.87l-.47,2c-1,4.38-2.45,10.4-2.78,11.83h0l-.08.33a1.21,1.21,0,0,0,0,.3,1.49,1.49,0,0,0,.58,1.2,1.52,1.52,0,0,0,1.6.13l.55-.32,1.76-1,8-4.74,3.79-2.22L37.1,76h0a21.3,21.3,0,0,1,11-3,67.34,67.34,0,0,0,15.45-1.72L65,71l1.13,1a28.27,28.27,0,0,0,4.05,3.08c8.29,5.17,18.42,6.27,25.46,6.28a19.24,19.24,0,0,1,9.92,2.7l.06,0,1.92,1.11,3.37,2,7.15,4.22Z"/><circle class="cls-1-0" cx="53.99" cy="46.77" r="3.96"/><circle class="cls-1-0" cx="69.42" cy="46.77" r="3.96"/><circle class="cls-1-0" cx="84.85" cy="46.77" r="3.96"/><path class="cls-1-0" d="M191.12,23.83,179.25,83.58a116,116,0,0,1,13-1.2q6.25,0,6.25,8.7a22.69,22.69,0,0,0-7.4-1.2,71.67,71.67,0,0,0-9.18.72L171,92a69.86,69.86,0,0,1-8.22.82q-4,0-5.72-1.92t-2-7a14.58,14.58,0,0,0,7.11,1.87,51.13,51.13,0,0,0,6.73-.72l11.92-59.8a55.76,55.76,0,0,1-9,.87q-6.63,0-6.63-7.79a8.32,8.32,0,0,0,4.71,1.25A59.32,59.32,0,0,0,180,18.35l7.6-1.44a73.46,73.46,0,0,1,12.11-1.44q6.49,0,7.5,8.7a12.79,12.79,0,0,0-5.62-1.3,58.14,58.14,0,0,0-8.32.67Q192.52,23.69,191.12,23.83Z"/><path class="cls-1-0" d="M235.19,62.43l-2.31,11.44a54.48,54.48,0,0,0-1.2,10.48,10.54,10.54,0,0,0,1.25,5.1,26.15,26.15,0,0,1-7.43,1.63q-4,0-4-4.52a67.37,67.37,0,0,1,1.59-11.49l11.78-59.32a23,23,0,0,1-7.55,1.59q-5.62,0-5.62-5a32.19,32.19,0,0,1,1-6,11.52,11.52,0,0,0,8.46,3.51q6.39,0,15.09-4.18L235.67,59.88a114.27,114.27,0,0,1,16.48-16.25q8.89-7.11,12.63-7.11,2.26,0,5.09,6.44-4.71.53-12.85,5.24a65.29,65.29,0,0,0-13.33,9.85q12.1,19.13,21.14,19.13a13.68,13.68,0,0,0,8.29-3.05q4.06-3.05,10.78-11.32a126.19,126.19,0,0,0,10.47-14.76l4,2.31q-8.74,16.1-18.49,26T263,86.32q-5.86,0-14.34-7.28A57.79,57.79,0,0,1,235.19,62.43Z"/><path class="cls-1-0" d="M302.54,69.86q0,14.05,11.92,14.05,10.34,0,22.79-9.83t22.45-25.9l4.09,2.25a89.06,89.06,0,0,1-24.49,29.11q-15.07,11.53-28.58,11.53-8.65,0-13.68-5.58t-5-15.24a34,34,0,0,1,9.11-23.84q9.11-9.9,21.94-9.9,6.2,0,9.93,3.12A10.35,10.35,0,0,1,336.71,48q0,8.6-10.36,15.23A43.22,43.22,0,0,1,302.54,69.86Zm.38-4.61a31.42,31.42,0,0,0,17.23-5.75q7.19-5.22,7.19-12.08,0-6.14-5.48-6.14-6.54,0-12.07,7A34.17,34.17,0,0,0,302.92,65.25Z"/><path class="cls-1-0" d="M374.25,72.62q17.06-36.1,30.67-36.1,10.62,0,10.62,21.15l.1,5.82q0,10.09,1,14t3.77,3.87q4.13,0,9.4-6.59T447,48.25l4,2.36q-10.58,19.95-18.94,29.61t-15,9.66q-6.1,0-8.58-5.91T406,63.49l0-4.13q0-7.88-1-11.08t-3.51-3.2q-6.35,0-20.43,25.33-3.46,6.2-4.47,8-3.7,6.44-3.7,9.33a4.28,4.28,0,0,0,.62,2.21,12.8,12.8,0,0,1-4.71,1.15q-4.85,0-4.85-5.38,0-1.54,1.25-13.84l1.06-10.43a101.88,101.88,0,0,0,.72-10.29q0-5.1-2.31-8L368,42a15.19,15.19,0,0,1,4.76-1.06q3.75,0,3.75,5.48,0,2.88-.72,9.9-.14,1.54-.29,2.93Z"/><path class="cls-1-0" d="M459.66,62.43l-2.31,11.44a54.48,54.48,0,0,0-1.2,10.48,10.54,10.54,0,0,0,1.25,5.1A26.15,26.15,0,0,1,450,91.08q-4,0-4-4.52a67.39,67.39,0,0,1,1.59-11.49l11.78-59.32a23,23,0,0,1-7.55,1.59q-5.62,0-5.62-5a32.2,32.2,0,0,1,1-6,11.52,11.52,0,0,0,8.46,3.51q6.39,0,15.09-4.18L460.14,59.88a114.27,114.27,0,0,1,16.48-16.25q8.89-7.11,12.63-7.11,2.26,0,5.09,6.44-4.71.53-12.85,5.24a65.29,65.29,0,0,0-13.33,9.85q12.1,19.13,21.14,19.13a13.68,13.68,0,0,0,8.29-3.05q4.06-3.05,10.78-11.32a126.17,126.17,0,0,0,10.47-14.76l4,2.31q-8.74,16.1-18.49,26t-16.86,9.93q-5.86,0-14.34-7.28A57.79,57.79,0,0,1,459.66,62.43Z"/></g></g></svg>