<svg xmlns="http://www.w3.org/2000/svg" viewBox="0 0 367.8 87.2"><defs><style>.cls-1-1{fill:#65C2C3;}</style></defs><title>ikenk_top</title><g id="レイヤー_2" data-name="レイヤー 2"><g id="レイヤー_1-2" data-name="レイヤー 1"><path class="cls-1-1" d="M36.1,18.17,24.23,77.92a116,116,0,0,1,13-1.2q6.25,0,6.25,8.7a22.69,22.69,0,0,0-7.4-1.2,71.67,71.67,0,0,0-9.18.72L16,86.38a69.86,69.86,0,0,1-8.22.82q-4,0-5.72-1.92t-2-7a14.58,14.58,0,0,0,7.11,1.87,51.13,51.13,0,0,0,6.73-.72l11.92-59.8a55.76,55.76,0,0,1-9,.87q-6.63,0-6.63-7.79a8.32,8.32,0,0,0,4.71,1.25,59.32,59.32,0,0,0,10.09-1.25l7.6-1.44A73.46,73.46,0,0,1,44.66,9.81q6.49,0,7.5,8.7a12.79,12.79,0,0,0-5.62-1.3,58.14,58.14,0,0,0-8.32.67Q37.49,18,36.1,18.17Z"/><path class="cls-1-1" d="M80.17,56.77,77.86,68.21a54.48,54.48,0,0,0-1.2,10.48,10.54,10.54,0,0,0,1.25,5.1,26.15,26.15,0,0,1-7.43,1.63q-4,0-4-4.52a67.37,67.37,0,0,1,1.59-11.49L79.88,10.09a23,23,0,0,1-7.55,1.59q-5.62,0-5.62-5a32.19,32.19,0,0,1,1-6,11.52,11.52,0,0,0,8.46,3.51q6.39,0,15.09-4.18L80.65,54.22A114.27,114.27,0,0,1,97.13,38q8.89-7.11,12.63-7.11,2.26,0,5.09,6.44-4.71.53-12.85,5.24A65.29,65.29,0,0,0,88.67,52.4q12.1,19.13,21.14,19.13a13.68,13.68,0,0,0,8.29-3.05q4.06-3.05,10.78-11.32A126.19,126.19,0,0,0,139.35,42.4l4,2.31q-8.74,16.1-18.49,26T108,80.66q-5.86,0-14.34-7.28A57.79,57.79,0,0,1,80.17,56.77Z"/><path class="cls-1-1" d="M147.51,64.21q0,14.05,11.92,14.05,10.34,0,22.79-9.83t22.45-25.9l4.09,2.25a89.06,89.06,0,0,1-24.49,29.11q-15.07,11.53-28.58,11.53-8.65,0-13.68-5.58t-5-15.24a34,34,0,0,1,9.11-23.84q9.11-9.9,21.94-9.9,6.2,0,9.93,3.12a10.35,10.35,0,0,1,3.73,8.36q0,8.6-10.36,15.23A43.22,43.22,0,0,1,147.51,64.21Zm.38-4.61a31.42,31.42,0,0,0,17.23-5.75q7.19-5.22,7.19-12.08,0-6.14-5.48-6.14-6.54,0-12.07,7A34.17,34.17,0,0,0,147.9,59.59Z"/><path class="cls-1-1" d="M219.22,67q17.06-36.1,30.67-36.1,10.62,0,10.62,21.15l.1,5.82q0,10.09,1,14t3.77,3.87q4.13,0,9.4-6.59T292,42.59l4,2.36q-10.58,19.95-18.94,29.61t-15,9.66q-6.1,0-8.58-5.91T251,57.83l0-4.13q0-7.88-1-11.08t-3.51-3.2q-6.35,0-20.43,25.33-3.46,6.2-4.47,8-3.7,6.44-3.7,9.33a4.28,4.28,0,0,0,.62,2.21,12.8,12.8,0,0,1-4.71,1.15q-4.85,0-4.85-5.38,0-1.54,1.25-13.84l1.06-10.43a101.88,101.88,0,0,0,.72-10.29q0-5.1-2.31-8L213,36.29a15.19,15.19,0,0,1,4.76-1.06q3.75,0,3.75,5.48,0,2.88-.72,9.9-.14,1.54-.29,2.93Z"/><path class="cls-1-1" d="M304.63,56.77l-2.31,11.44a54.48,54.48,0,0,0-1.2,10.48,10.54,10.54,0,0,0,1.25,5.1,26.15,26.15,0,0,1-7.43,1.63q-4,0-4-4.52a67.39,67.39,0,0,1,1.59-11.49l11.78-59.32a23,23,0,0,1-7.55,1.59q-5.62,0-5.62-5a32.2,32.2,0,0,1,1-6,11.52,11.52,0,0,0,8.46,3.51Q307,4.18,315.69,0L305.11,54.22A114.27,114.27,0,0,1,321.59,38q8.89-7.11,12.63-7.11,2.26,0,5.09,6.44-4.71.53-12.85,5.24a65.29,65.29,0,0,0-13.33,9.85q12.1,19.13,21.14,19.13a13.68,13.68,0,0,0,8.29-3.05q4.06-3.05,10.78-11.32A126.17,126.17,0,0,0,363.81,42.4l4,2.31q-8.74,16.1-18.49,26t-16.86,9.93q-5.86,0-14.34-7.28A57.79,57.79,0,0,1,304.63,56.77Z"/></g></g></svg>