<svg xmlns="http://www.w3.org/2000/svg" viewBox="0 0 744.14 181.96"><defs><style>.cls-1,.cls-3{fill:#7f9cac;}.cls-2{fill:#f1c13a;}.cls-3{stroke:#7f9cac;stroke-miterlimit:10;}</style></defs><title>アセット 1</title><g id="レイヤー_2" data-name="レイヤー 2"><g id="レイヤー_1-2" data-name="レイヤー 1"><path class="cls-1" d="M88.69,19.91a67.17,67.17,0,0,0-47.5,114.67,67.17,67.17,0,0,0,95-95,66.74,66.74,0,0,0-47.5-19.67Zm63.77,67.17A63.77,63.77,0,1,1,133.78,42a63.35,63.35,0,0,1,18.68,45.09Z"/><path class="cls-1" d="M106.38,170.6c7.86,2,13.79,1.78,20.79-2.4-7.76-12.51-25.33-16.87-38-9.46,4.22,7,9.39,9.91,17.25,11.86"/><path class="cls-1" d="M133.08,159.54c8.07-.71,13.63-2.81,18.88-9-11.42-9.3-29.44-7.71-39.05,3.44,6.27,5.22,12.1,6.31,20.17,5.6"/><path class="cls-1" d="M154.72,140.39c7.4-3.3,12-7.09,14.91-14.7-13.82-5.08-30.34,2.29-35.8,16,7.62,2.9,13.5,2,20.89-1.27"/><path class="cls-1" d="M168.95,115.23c5.92-5.53,9-10.6,9.31-18.75-14.72-.3-27.95,12-28.65,26.76,8.15.26,13.42-2.48,19.34-8"/><path class="cls-1" d="M174.21,86.82c3.8-7.15,5.06-13,2.7-20.76-14,4.51-22.5,20.49-18.38,34.62,7.79-2.41,11.89-6.71,15.68-13.87"/><path class="cls-1" d="M169.94,58.23c1.26-8,.57-13.9-4.21-20.51-11.78,8.82-14.6,26.7-6.1,38.72,6.58-4.82,9.05-10.22,10.31-18.22"/><path class="cls-1" d="M71.88,170.6c-7.86,2-13.8,1.78-20.79-2.4,7.77-12.51,25.33-16.87,38-9.46-4.22,7-9.39,9.91-17.25,11.86"/><path class="cls-1" d="M90.59,175.14c1.93,3.54,4,5.66,7.89,6.81a14.34,14.34,0,0,0-9.35-17.13c-1.13,3.9-.47,6.78,1.46,10.32"/><path class="cls-1" d="M87.67,175.14c-1.93,3.54-4,5.66-7.88,6.82a14.34,14.34,0,0,1,9.34-17.14c1.14,3.9.47,6.78-1.46,10.32"/><path class="cls-1" d="M45.18,159.54c-8.07-.71-13.62-2.81-18.88-9,11.41-9.3,29.44-7.71,39.05,3.44-6.27,5.22-12.1,6.31-20.17,5.6"/><path class="cls-1" d="M23.54,140.39c-7.4-3.3-12-7.09-14.91-14.7,13.82-5.08,30.35,2.29,35.8,16-7.62,2.9-13.5,2-20.9-1.27"/><path class="cls-1" d="M9.31,115.23C3.39,109.7.3,104.63,0,96.48c14.72-.3,27.95,12,28.65,26.76-8.15.26-13.42-2.48-19.34-8"/><path class="cls-1" d="M4,86.82c-3.8-7.15-5.07-13-2.7-20.76,14,4.51,22.5,20.49,18.38,34.62C11.94,98.27,7.84,94,4,86.82"/><path class="cls-1" d="M8.32,58.23c-1.26-8-.57-13.9,4.21-20.51,11.79,8.82,14.6,26.7,6.11,38.72C12.05,71.63,9.58,66.23,8.32,58.23"/><path class="cls-1" d="M157.38,52a77.49,77.49,0,0,0-5.07-8.51l-2.81,1.93a73.82,73.82,0,0,1,4.84,8.14l3-1.55M146.2,35.69a77.58,77.58,0,0,0-7.05-7l-2.23,2.57A73.73,73.73,0,0,1,143.66,38l2.54-2.27M131.26,22.74a76.29,76.29,0,0,0-8.59-4.92l-1.5,3.06a73.11,73.11,0,0,1,8.21,4.7l1.88-2.84M113.51,14a77.89,77.89,0,0,0-9.56-2.57l-.67,3.34a74.3,74.3,0,0,1,9.15,2.46L113.51,14M74.38,11.27a76.73,76.73,0,0,0-9.6,2.47L65.84,17A73.35,73.35,0,0,1,75,14.61l-.63-3.35m-18.8,6.14a77.52,77.52,0,0,0-8.65,4.82l1.85,2.86A73.83,73.83,0,0,1,57,20.48l-1.47-3.08M39,28.12A77.09,77.09,0,0,0,31.81,35l2.51,2.3a73.89,73.89,0,0,1,6.84-6.55L39,28.12M25.59,42.68a77,77,0,0,0-5.17,8.44l3,1.59a73.16,73.16,0,0,1,4.94-8.07l-2.79-2"/><path class="cls-1" d="M88.69,27.68a59.4,59.4,0,1,0,59.4,59.4,59.47,59.47,0,0,0-59.4-59.4Zm55.91,59.4A55.91,55.91,0,1,1,88.69,31.17,56,56,0,0,1,144.6,87.08Z"/><path class="cls-2" d="M120.44,118.83c-5.61,6-17,6.13-31.75,6.47-14.74-.34-26.14-.51-31.75-6.47-6-5.61-6.14-17-6.47-31.75.34-14.74.51-26.14,6.47-31.75,5.61-6,17-6.14,31.75-6.47,14.74.33,26.14.51,31.75,6.47,6,5.61,6.13,17,6.47,31.75-.34,14.74-.51,26.14-6.47,31.75ZM88.69,35.42a51.65,51.65,0,1,0,51.65,51.66A51.66,51.66,0,0,0,88.69,35.42Z"/><path class="cls-1" d="M89.13,13.47A4.47,4.47,0,1,1,93.6,9a4.47,4.47,0,0,1-4.47,4.47ZM89.13,0a9,9,0,1,0,9,9,9,9,0,0,0-9-9Z"/><path class="cls-1" d="M80.14,94.12h-2q-13,0-13.07-10.05V69q0-10.05,13.07-10.05h2Zm-15.08,6H96.23v15.08H65.06ZM81.15,58.93h31.17V74H81.15Zm0,21.11H96.23V94.12H81.15Zm16.09,0h2q13.07,0,13.07,10.05v15.08q0,10.05-13.07,10.05h-2Z"/><path class="cls-1" d="M254.84,74.73a70.21,70.21,0,0,1-7,9.22,88.45,88.45,0,0,1-9.46,9.23,67.64,67.64,0,0,1-12.54,8.42,27,27,0,0,1-12.3,3.19,11.33,11.33,0,0,1-7.19-2.26,7.94,7.94,0,0,1-2.9-6.67,23.49,23.49,0,0,1,3.19-11.37,46.89,46.89,0,0,1,8-10.62A43.6,43.6,0,0,1,225.19,66,23.45,23.45,0,0,1,236,63a13.22,13.22,0,0,1,5.86,1.22,4.33,4.33,0,0,1,2.49,4.24,3.56,3.56,0,0,1-.75,2.32,6,6,0,0,1-1.86,1.51,9.5,9.5,0,0,1-2.44.87,23.07,23.07,0,0,1-2.38.41,24.93,24.93,0,0,0,.81-2.38,9.06,9.06,0,0,0,.35-2.5q0-4.29-4.06-4.29-3,0-7.14,3a40.24,40.24,0,0,0-7.78,7.48,48.64,48.64,0,0,0-6.21,10,24.85,24.85,0,0,0-2.55,10.56,9.48,9.48,0,0,0,1.45,5.34,5,5,0,0,0,4.47,2.21,21.23,21.23,0,0,0,9.34-2.67,60.69,60.69,0,0,0,10.27-6.61,80.54,80.54,0,0,0,10-9.34A81.25,81.25,0,0,0,254,74Z"/><path class="cls-1" d="M309,74.5a22.57,22.57,0,0,1-6.27,5,14.46,14.46,0,0,1-6.85,1.86,10.29,10.29,0,0,1-5.57-1.45,11.28,11.28,0,0,1-3.6-3.42h-.23a34.37,34.37,0,0,1-4.29,9.4A48,48,0,0,1,274.75,95a43,43,0,0,1-9.57,7,22.46,22.46,0,0,1-10.68,2.78q-5,0-7.54-2.9a11.34,11.34,0,0,1-2.55-7.78,17.07,17.07,0,0,1,1.28-5.92,34.75,34.75,0,0,1,3.54-6.79,52.14,52.14,0,0,1,5.34-6.73,45.7,45.7,0,0,1,6.67-5.92,33.88,33.88,0,0,1,7.6-4.18A22,22,0,0,1,276.89,63a9.62,9.62,0,0,1,7.37,2.79,11,11,0,0,1,2.84,7.2,7.88,7.88,0,0,0,2.5,4.93,8.39,8.39,0,0,0,6.21,2.26,13.11,13.11,0,0,0,6.56-1.74,25.17,25.17,0,0,0,5.74-4.53Zm-57.21,27.16a3.9,3.9,0,0,0,3.48,1.74,12.82,12.82,0,0,0,6.21-1.68,28,28,0,0,0,5.92-4.41,41.67,41.67,0,0,0,5.28-6.21A52.26,52.26,0,0,0,277,83.9a47.44,47.44,0,0,0,2.84-7.25,23,23,0,0,0,1-6.44,6.82,6.82,0,0,0-1.22-4.12,4.35,4.35,0,0,0-3.77-1.68A10.75,10.75,0,0,0,270.63,66,32,32,0,0,0,265,70.09,42.07,42.07,0,0,0,259.6,76,61.44,61.44,0,0,0,255,83a39,39,0,0,0-3.19,7.19,22,22,0,0,0-1.16,6.73A8.48,8.48,0,0,0,251.83,101.66Z"/><path class="cls-1" d="M290.12,103.75q2.55-4.29,5.86-9.4L302.71,84q3.42-5.28,6.73-10.44t6-9.69l7.08.12L307.18,85.53l.23.23q2.2-2.67,5.34-6.56a78.26,78.26,0,0,1,6.9-7.48,45.12,45.12,0,0,1,8.07-6.15A17.05,17.05,0,0,1,336.54,63a7.08,7.08,0,0,1,4.58,1.45,5.12,5.12,0,0,1,1.8,4.24,9.22,9.22,0,0,1-1.16,3.95,45.8,45.8,0,0,1-2.73,4.7q-1.57,2.38-3.19,4.58t-2.55,3.6l.23.23a91.46,91.46,0,0,1,5.86-7.43A77.25,77.25,0,0,1,346.7,71a44.77,44.77,0,0,1,8-5.69A16.51,16.51,0,0,1,362.66,63a7,7,0,0,1,5,1.63,6,6,0,0,1,1.68,4.53,10.74,10.74,0,0,1-1.33,4.64,48.11,48.11,0,0,1-3.37,5.63q-2,3-4.35,6T356,91.21a51.89,51.89,0,0,0-3.36,5.17,8.62,8.62,0,0,0-1.34,4,2.87,2.87,0,0,0,.87,2.21,3,3,0,0,0,2.15.81,13.52,13.52,0,0,0,6.56-2.2A49.87,49.87,0,0,0,369,95a108.19,108.19,0,0,0,9.11-9.46q4.76-5.51,9.63-12.13l.93.47q-4.76,6.5-9.52,12.13a116,116,0,0,1-9.23,9.81,48,48,0,0,1-8.59,6.56,15.43,15.43,0,0,1-7.6,2.38,6.65,6.65,0,0,1-5.34-2,7.49,7.49,0,0,1-1.74-5A11.4,11.4,0,0,1,348,92.78a42.35,42.35,0,0,1,3.37-5.63q2-2.9,4.35-5.8T360,75.78a56.5,56.5,0,0,0,3.37-4.87,7.55,7.55,0,0,0,1.33-3.6,2.63,2.63,0,0,0-.87-2.26,3.53,3.53,0,0,0-2.15-.64A12.65,12.65,0,0,0,356.27,66a34.66,34.66,0,0,0-6.56,4.4,83.18,83.18,0,0,0-7,6.59q-3.6,3.76-7,8.1a104.62,104.62,0,0,0-6.44,9.14,86.14,86.14,0,0,0-5.22,9.55l-7.43.12q3.25-5.8,7-11.6t7-10.74q3.25-4.93,5.45-8.59t2.21-5.4q0-3.13-3.25-3.13a13,13,0,0,0-6.5,2.15,44.69,44.69,0,0,0-7.31,5.57,79,79,0,0,0-7.31,7.78q-3.6,4.35-6.79,8.76t-5.63,8.42q-2.44,4-3.83,6.79Z"/><path class="cls-1" d="M369.85,103.75q2.55-4.29,5.86-9.4L382.44,84q3.42-5.28,6.73-10.44t6-9.69l7.08.12L386.91,85.53l.23.23q2.2-2.67,5.34-6.56a78.26,78.26,0,0,1,6.9-7.48,45.12,45.12,0,0,1,8.07-6.15A17.05,17.05,0,0,1,416.27,63a7.08,7.08,0,0,1,4.58,1.45,5.12,5.12,0,0,1,1.8,4.24,9.22,9.22,0,0,1-1.16,3.95,45.8,45.8,0,0,1-2.73,4.7q-1.57,2.38-3.19,4.58T413,85.53l.23.23a91.46,91.46,0,0,1,5.86-7.43A77.25,77.25,0,0,1,426.43,71a44.77,44.77,0,0,1,8-5.69A16.51,16.51,0,0,1,442.38,63a7,7,0,0,1,5,1.63,6,6,0,0,1,1.68,4.53,10.74,10.74,0,0,1-1.33,4.64,48.11,48.11,0,0,1-3.37,5.63q-2,3-4.35,6t-4.35,5.8a51.89,51.89,0,0,0-3.36,5.17,8.62,8.62,0,0,0-1.34,4,2.87,2.87,0,0,0,.87,2.21,3,3,0,0,0,2.15.81,13.52,13.52,0,0,0,6.56-2.2A49.87,49.87,0,0,0,448.71,95a108.19,108.19,0,0,0,9.11-9.46q4.76-5.51,9.63-12.13l.93.47q-4.76,6.5-9.52,12.13a116,116,0,0,1-9.23,9.81,48,48,0,0,1-8.59,6.56,15.43,15.43,0,0,1-7.6,2.38,6.65,6.65,0,0,1-5.34-2,7.49,7.49,0,0,1-1.74-5,11.4,11.4,0,0,1,1.33-4.93,42.35,42.35,0,0,1,3.37-5.63q2-2.9,4.35-5.8t4.35-5.57a56.5,56.5,0,0,0,3.37-4.87,7.55,7.55,0,0,0,1.33-3.6A2.63,2.63,0,0,0,443.6,65a3.53,3.53,0,0,0-2.15-.64A12.65,12.65,0,0,0,436,66a34.66,34.66,0,0,0-6.56,4.4,83.18,83.18,0,0,0-7,6.59q-3.6,3.76-7,8.1A104.62,104.62,0,0,0,409,94.2a86.14,86.14,0,0,0-5.22,9.55l-7.43.12q3.25-5.8,7-11.6t7-10.74q3.25-4.93,5.45-8.59t2.21-5.4q0-3.13-3.25-3.13a13,13,0,0,0-6.5,2.15A44.69,44.69,0,0,0,401,72.12a79,79,0,0,0-7.31,7.78q-3.6,4.35-6.79,8.76t-5.63,8.42q-2.44,4-3.83,6.79Z"/><path class="cls-1" d="M483.23,63.94q-4.53,6.15-8.7,11.72T467.1,85.87q-3.25,4.64-5.16,8.07a12.2,12.2,0,0,0-1.91,5.4,3.57,3.57,0,0,0,.93,2.73,3.42,3.42,0,0,0,2.44.87,10.36,10.36,0,0,0,4.82-1.39,34,34,0,0,0,5.34-3.6,61.64,61.64,0,0,0,5.34-4.87q2.61-2.67,4.87-5.28T487.7,83q1.68-2.2,2.49-3.48l10.21-15.55h8L497.8,78.5q-4.35,6-7.08,10.16a51.44,51.44,0,0,0-3.89,6.79,11.57,11.57,0,0,0-1.16,4.59,3.62,3.62,0,0,0,.81,2.38,2.83,2.83,0,0,0,2.32,1,11.29,11.29,0,0,0,5.34-1.68,40.88,40.88,0,0,0,6.27-4.41,73.29,73.29,0,0,0,6.44-6.15q3.19-3.42,6-6.79T518.05,78q2.32-3,3.6-4.82l1.16.35q-1.39,2-3.71,5t-5.22,6.5q-2.9,3.42-6.15,7A63.44,63.44,0,0,1,501,98.41a44.17,44.17,0,0,1-6.73,4.58,13.08,13.08,0,0,1-6.21,1.8,7.24,7.24,0,0,1-5.17-1.8A6.29,6.29,0,0,1,481,98.18a13.33,13.33,0,0,1,.76-4.47,19.17,19.17,0,0,1,1.1-2.73l-.23-.23q-2.44,2.78-5.11,5.34a49.8,49.8,0,0,1-5.34,4.47,28.18,28.18,0,0,1-5.4,3.08,13.73,13.73,0,0,1-5.4,1.16q-3.72,0-5.34-1.68a5.56,5.56,0,0,1-1.62-4A15,15,0,0,1,456,92.84a58.09,58.09,0,0,1,4.35-7.54q2.79-4.18,6.67-9.4t8.53-12Z"/><path class="cls-1" d="M535.69,63.94,520.37,85.18l.23.23,5.69-6.79a83.36,83.36,0,0,1,7-7.37A44.71,44.71,0,0,1,541,65.39,15.48,15.48,0,0,1,548.92,63a7.29,7.29,0,0,1,5.4,1.92,6.67,6.67,0,0,1,1.91,4.93,9.89,9.89,0,0,1-1.33,4.41,55.36,55.36,0,0,1-3.31,5.45q-2,2.9-4.29,5.92T543,91.39q-2,2.73-3.31,5a7.92,7.92,0,0,0-1.33,3.77q0,3.25,3.25,3.25a15.49,15.49,0,0,0,7.89-2.49,53.68,53.68,0,0,0,10-8.42q2.32-2.32,4.7-5.11t4.59-5.51q2.2-2.73,4-5.17t2.84-4.06l.81.47q-2.32,3.48-6,8.3t-7.95,9.46q-2.56,2.78-5.22,5.34a49.53,49.53,0,0,1-5.34,4.47,27.29,27.29,0,0,1-5.28,3,13.22,13.22,0,0,1-5.16,1.1,8.35,8.35,0,0,1-5.57-1.86,6.32,6.32,0,0,1-2.21-5.11,13.84,13.84,0,0,1,2.79-7.6q2.78-4.12,6.15-8.3t6.15-8q2.78-3.83,2.78-6.73a2.45,2.45,0,0,0-.93-2.09,4,4,0,0,0-2.44-.7,13,13,0,0,0-6.5,2.14,43.48,43.48,0,0,0-7.37,5.67,106.28,106.28,0,0,0-7.54,7.87q-3.77,4.34-7,8.68T514,97.09a65.56,65.56,0,0,0-3.83,6.65l-7.19.12q3-5.11,6.44-10.39T516.19,83q3.36-5.16,6.44-10t5.51-8.76Z"/><path class="cls-1" d="M590.93,63.94q-6.38,9.17-10.79,15.43T573,89.82a71.72,71.72,0,0,0-3.95,6.61,9.48,9.48,0,0,0-1.22,3.95q0,3,2.44,3a11.61,11.61,0,0,0,5.4-1.68,46,46,0,0,0,6.44-4.35,79,79,0,0,0,6.73-6q3.36-3.36,6.32-6.67t5.22-6.38a43.14,43.14,0,0,0,3.31-5l.93.58q-1.39,2.32-3.77,5.57T595.46,86q-3,3.42-6.38,6.79a69.63,69.63,0,0,1-6.85,6,40.56,40.56,0,0,1-6.79,4.29,13.94,13.94,0,0,1-6.09,1.62,5.82,5.82,0,0,1-4.64-1.74,5.72,5.72,0,0,1-1.51-3.83,13.81,13.81,0,0,1,1.1-5.16,46.48,46.48,0,0,1,3.54-6.67q2.44-3.94,6.33-9.57t9.34-13.87Zm9.4-20.49a4.09,4.09,0,0,1,0,5.46,3.79,3.79,0,0,1-5.34,0,4.08,4.08,0,0,1,0-5.46,3.78,3.78,0,0,1,5.34,0Z"/><path class="cls-1" d="M626.44,50.48l-9.17,13.46h15.32l-.7,1.39H616.34q-4.64,7.54-8.3,13.05t-6.15,9.52a66.7,66.7,0,0,0-3.77,6.73,11.62,11.62,0,0,0-1.28,4.82,3.25,3.25,0,0,0,1.51,3.08,6.83,6.83,0,0,0,3.48.87q4.18,0,9.22-3.19a68.68,68.68,0,0,0,10-7.83,126.65,126.65,0,0,0,9.52-9.86q4.53-5.22,7.66-9.4l.7.46q-3.95,5-8.64,10.5a115.35,115.35,0,0,1-9.69,10.1,61.62,61.62,0,0,1-10,7.6,18.75,18.75,0,0,1-9.57,3,9.32,9.32,0,0,1-6.21-2.21,7.61,7.61,0,0,1-2.61-6.15,14.62,14.62,0,0,1,1.51-6,59.25,59.25,0,0,1,3.95-7.14q2.44-3.83,5.51-8.36t6.33-9.63h-6.27l.7-1.39h6.5l9.05-13.46Z"/><path class="cls-1" d="M653.6,63.94q-4.18,6-8.36,11.6t-7.48,10.21q-3.31,4.64-5.4,8.18t-2.09,5.63q0,3.37,3.25,3.37t7.83-3.25A66.68,66.68,0,0,0,650.81,91,144.12,144.12,0,0,0,661,78.62q5.16-7,9.92-14.68h7.19q-6.85,9.4-12.76,19.32T652.9,102.93A48.38,48.38,0,0,0,674,93.24,81.72,81.72,0,0,0,691.78,74l.81.35a77.08,77.08,0,0,1-19,20.49q-10.62,7.72-21.53,9.46-4.53,6.15-9.22,12.47a76.51,76.51,0,0,1-10.33,11.37,51.4,51.4,0,0,1-12.36,8.24,35,35,0,0,1-15.2,3.19,26.11,26.11,0,0,1-7.25-1,20.77,20.77,0,0,1-6-2.73,13.92,13.92,0,0,1-4.06-4.18,9.74,9.74,0,0,1-1.51-5.22q0-6,4-8.82a16.55,16.55,0,0,1,9.69-2.79v.35a9.65,9.65,0,0,0-6.15,3.77,12.23,12.23,0,0,0-2,7.14,11.18,11.18,0,0,0,1.16,5.16,11.64,11.64,0,0,0,3,3.77,13.73,13.73,0,0,0,4.24,2.32,15.18,15.18,0,0,0,4.93.81,23.37,23.37,0,0,0,10.56-2.55,45.37,45.37,0,0,0,9.81-6.73,80.9,80.9,0,0,0,9-9.46q4.29-5.28,8.12-10.91t7.14-11q3.31-5.39,6.09-9.69l-.23-.23q-1.86,2.21-4.53,5.16a58,58,0,0,1-5.86,5.63,37,37,0,0,1-6.79,4.53,16,16,0,0,1-7.43,1.86q-3.72,0-5.34-1.51A5.27,5.27,0,0,1,624,99.22a11.7,11.7,0,0,1,1.22-4.93,50.4,50.4,0,0,1,3.89-6.56q2.67-3.95,6.79-9.63t9.92-14.16Z"/><line class="cls-3" x1="181.14" y1="116.49" x2="744.14" y2="116.49"/><path class="cls-1" d="M340.85,154.06q-4.75,0-5.19-3.64H337a2.4,2.4,0,0,0,1.08,1.74,4.91,4.91,0,0,0,2.74.63,5.9,5.9,0,0,0,1.55-.18,3.56,3.56,0,0,0,1.11-.49,2,2,0,0,0,.88-1.66,1.86,1.86,0,0,0-.18-.84,1.66,1.66,0,0,0-.63-.64,5.94,5.94,0,0,0-1.25-.55q-.79-.26-2-.56-1.05-.25-1.87-.52a5.16,5.16,0,0,1-1.38-.67,2.62,2.62,0,0,1-.84-1,3.12,3.12,0,0,1-.28-1.41,2.72,2.72,0,0,1,.33-1.33,3,3,0,0,1,.91-1,4.39,4.39,0,0,1,1.42-.64,7.18,7.18,0,0,1,1.85-.22,6.71,6.71,0,0,1,3.5.74,2.84,2.84,0,0,1,1.33,2.33h-1.35a1.76,1.76,0,0,0-.93-1.36,5,5,0,0,0-2.36-.44,6.71,6.71,0,0,0-1.35.13,3.71,3.71,0,0,0-1.06.37,2,2,0,0,0-.69.62,1.49,1.49,0,0,0-.25.85,1.68,1.68,0,0,0,.1.56,1.36,1.36,0,0,0,.51.59,5.28,5.28,0,0,0,1.23.61,18.61,18.61,0,0,0,2.24.64,19.56,19.56,0,0,1,1.94.56,5.18,5.18,0,0,1,1.37.7,2.64,2.64,0,0,1,.81.95,2.84,2.84,0,0,1,.27,1.27,3.44,3.44,0,0,1-.34,1.52,3.54,3.54,0,0,1-1,1.22,4.71,4.71,0,0,1-1.53.8A6.49,6.49,0,0,1,340.85,154.06Z"/><path class="cls-1" d="M356.29,141.11a6.25,6.25,0,0,1,2.39.44,4.92,4.92,0,0,1,1.82,1.27,5.69,5.69,0,0,1,1.15,2,9.41,9.41,0,0,1,0,5.46,5.78,5.78,0,0,1-1.16,2,4.92,4.92,0,0,1-1.82,1.27,6.67,6.67,0,0,1-4.73,0,4.85,4.85,0,0,1-1.81-1.26,5.88,5.88,0,0,1-1.17-2,9.33,9.33,0,0,1,0-5.49,5.7,5.7,0,0,1,1.16-2,5,5,0,0,1,1.82-1.26A6.2,6.2,0,0,1,356.29,141.11Zm0,11.68a4.76,4.76,0,0,0,1.79-.33,3.67,3.67,0,0,0,1.39-1,4.65,4.65,0,0,0,.91-1.64,8.1,8.1,0,0,0,0-4.55,4.48,4.48,0,0,0-.91-1.62,3.75,3.75,0,0,0-1.39-1,5.15,5.15,0,0,0-3.6,0,3.75,3.75,0,0,0-1.39,1,4.39,4.39,0,0,0-.9,1.62,8.3,8.3,0,0,0,0,4.55,4.55,4.55,0,0,0,.9,1.64,3.67,3.67,0,0,0,1.39,1A4.81,4.81,0,0,0,356.29,152.79Z"/><path class="cls-1" d="M371.87,154.06q-4.75,0-5.19-3.64H368a2.4,2.4,0,0,0,1.08,1.74,4.91,4.91,0,0,0,2.74.63,5.9,5.9,0,0,0,1.55-.18,3.56,3.56,0,0,0,1.11-.49,2,2,0,0,0,.88-1.66,1.86,1.86,0,0,0-.18-.84,1.66,1.66,0,0,0-.63-.64,5.94,5.94,0,0,0-1.25-.55q-.79-.26-2-.56-1.05-.25-1.87-.52a5.16,5.16,0,0,1-1.38-.67,2.62,2.62,0,0,1-.84-1,3.12,3.12,0,0,1-.28-1.41,2.72,2.72,0,0,1,.33-1.33,3,3,0,0,1,.91-1,4.39,4.39,0,0,1,1.42-.64,7.18,7.18,0,0,1,1.85-.22,6.71,6.71,0,0,1,3.5.74,2.84,2.84,0,0,1,1.33,2.33h-1.35a1.76,1.76,0,0,0-.93-1.36,5,5,0,0,0-2.36-.44,6.71,6.71,0,0,0-1.35.13,3.71,3.71,0,0,0-1.06.37,2,2,0,0,0-.69.62,1.49,1.49,0,0,0-.25.85,1.68,1.68,0,0,0,.1.56,1.36,1.36,0,0,0,.51.59,5.28,5.28,0,0,0,1.23.61,18.61,18.61,0,0,0,2.24.64,19.56,19.56,0,0,1,1.94.56,5.18,5.18,0,0,1,1.37.7,2.64,2.64,0,0,1,.81.95,2.84,2.84,0,0,1,.27,1.27,3.44,3.44,0,0,1-.34,1.52,3.54,3.54,0,0,1-1,1.22,4.71,4.71,0,0,1-1.53.8A6.49,6.49,0,0,1,371.87,154.06Z"/><path class="cls-1" d="M387.57,154.06a6.6,6.6,0,0,1-2.45-.44,5.25,5.25,0,0,1-1.89-1.27,5.73,5.73,0,0,1-1.23-2,8.92,8.92,0,0,1,0-5.44,5.75,5.75,0,0,1,1.18-2,5.19,5.19,0,0,1,1.82-1.28,5.93,5.93,0,0,1,2.34-.44,6.15,6.15,0,0,1,2.39.44,5,5,0,0,1,1.82,1.28,5.69,5.69,0,0,1,1.15,2,8.54,8.54,0,0,1,.4,2.71v.29H382.9a7.14,7.14,0,0,0,.48,2.18,4.63,4.63,0,0,0,1,1.53,4,4,0,0,0,1.43.91,5,5,0,0,0,1.76.3,6,6,0,0,0,1.33-.15,4.52,4.52,0,0,0,1.21-.45,3.15,3.15,0,0,0,.91-.75,1.92,1.92,0,0,0,.43-1h1.32a4.21,4.21,0,0,1-.65,1.55,4.44,4.44,0,0,1-1.15,1.14,5.12,5.12,0,0,1-1.55.71A7,7,0,0,1,387.57,154.06Zm4.15-7.47a5.15,5.15,0,0,0-1.51-3.16,4.19,4.19,0,0,0-2.89-1,4.81,4.81,0,0,0-1.58.25,3.75,3.75,0,0,0-1.31.78,4.38,4.38,0,0,0-1,1.32,6.44,6.44,0,0,0-.56,1.86Z"/><path class="cls-1" d="M400.08,153.74h-1.33V141.43h1.33Zm0-15.41h-1.33v-2h1.33Z"/><path class="cls-1" d="M428.54,154.06a6.19,6.19,0,0,1-2.34-.43,5,5,0,0,1-1.82-1.26,5.72,5.72,0,0,1-1.18-2,9.36,9.36,0,0,1,0-5.5,5.63,5.63,0,0,1,1.17-2,5.05,5.05,0,0,1,1.82-1.26,6.55,6.55,0,0,1,4.1-.2,4.58,4.58,0,0,1,1.43.7,4.09,4.09,0,0,1,1.05,1.14,4.52,4.52,0,0,1,.59,1.56h-1.3a2.48,2.48,0,0,0-.38-1,2.55,2.55,0,0,0-.76-.75,3.53,3.53,0,0,0-1.08-.45,5.43,5.43,0,0,0-1.31-.15,4.83,4.83,0,0,0-1.8.33,3.69,3.69,0,0,0-1.4,1,4.47,4.47,0,0,0-.9,1.63,8.3,8.3,0,0,0,0,4.55,4.47,4.47,0,0,0,.9,1.63,3.69,3.69,0,0,0,1.4,1,4.83,4.83,0,0,0,1.8.33,5.11,5.11,0,0,0,1.25-.15,3.79,3.79,0,0,0,1.08-.44,2.76,2.76,0,0,0,.79-.73,2.25,2.25,0,0,0,.4-1h1.3a4.68,4.68,0,0,1-.61,1.57,4.13,4.13,0,0,1-1.05,1.14,4.45,4.45,0,0,1-1.43.69A6.28,6.28,0,0,1,428.54,154.06Z"/><path class="cls-1" d="M443.27,141.11a6.25,6.25,0,0,1,2.39.44,4.92,4.92,0,0,1,1.82,1.27,5.69,5.69,0,0,1,1.15,2,9.41,9.41,0,0,1,0,5.46,5.78,5.78,0,0,1-1.16,2,4.92,4.92,0,0,1-1.82,1.27,6.67,6.67,0,0,1-4.73,0,4.85,4.85,0,0,1-1.81-1.26,5.88,5.88,0,0,1-1.17-2,9.33,9.33,0,0,1,0-5.49,5.7,5.7,0,0,1,1.16-2,5,5,0,0,1,1.82-1.26A6.2,6.2,0,0,1,443.27,141.11Zm0,11.68a4.76,4.76,0,0,0,1.79-.33,3.67,3.67,0,0,0,1.39-1,4.65,4.65,0,0,0,.91-1.64,8.1,8.1,0,0,0,0-4.55,4.48,4.48,0,0,0-.91-1.62,3.75,3.75,0,0,0-1.39-1,5.15,5.15,0,0,0-3.6,0,3.75,3.75,0,0,0-1.39,1,4.39,4.39,0,0,0-.9,1.62,8.3,8.3,0,0,0,0,4.55,4.55,4.55,0,0,0,.9,1.64,3.67,3.67,0,0,0,1.39,1A4.81,4.81,0,0,0,443.27,152.79Z"/><path class="cls-1" d="M471.63,153.74H470.3v-8a4.35,4.35,0,0,0-.58-2.54,2.36,2.36,0,0,0-2-.78,3.89,3.89,0,0,0-2.08.63,8.29,8.29,0,0,0-2,1.77v9h-1.33v-8a7.92,7.92,0,0,0-.13-1.51,2.49,2.49,0,0,0-.43-1,1.77,1.77,0,0,0-.79-.59,3.36,3.36,0,0,0-1.21-.19,3.58,3.58,0,0,0-2,.63,9.27,9.27,0,0,0-1.92,1.77v9h-1.33V141.43h1.33v1.83a8.54,8.54,0,0,1,1.26-1.14,6,6,0,0,1,1.12-.64,4.17,4.17,0,0,1,1-.29,6.12,6.12,0,0,1,.91-.07,3.93,3.93,0,0,1,2.14.56,3.15,3.15,0,0,1,1.28,1.7,5.82,5.82,0,0,1,1.06-1.1,5.37,5.37,0,0,1,1.13-.69,5,5,0,0,1,1.16-.36,6.51,6.51,0,0,1,1.13-.1q3.59,0,3.59,4.48Z"/><path class="cls-1" d="M494.94,153.74H493.6v-8a4.35,4.35,0,0,0-.58-2.54,2.36,2.36,0,0,0-2-.78,3.89,3.89,0,0,0-2.08.63,8.29,8.29,0,0,0-2,1.77v9h-1.33v-8a7.92,7.92,0,0,0-.13-1.51,2.49,2.49,0,0,0-.43-1,1.77,1.77,0,0,0-.79-.59,3.36,3.36,0,0,0-1.21-.19,3.58,3.58,0,0,0-2,.63,9.27,9.27,0,0,0-1.92,1.77v9h-1.33V141.43h1.33v1.83a8.54,8.54,0,0,1,1.26-1.14,6,6,0,0,1,1.12-.64,4.17,4.17,0,0,1,1-.29,6.12,6.12,0,0,1,.91-.07,3.93,3.93,0,0,1,2.14.56,3.15,3.15,0,0,1,1.28,1.7,5.82,5.82,0,0,1,1.06-1.1,5.37,5.37,0,0,1,1.13-.69,5,5,0,0,1,1.16-.36,6.51,6.51,0,0,1,1.13-.1q3.59,0,3.59,4.48Z"/><path class="cls-1" d="M509.79,152.09a4.7,4.7,0,0,1-1.09.93,7,7,0,0,1-2.47.94,6.6,6.6,0,0,1-1.09.1q-4,0-4-4.5v-8.14h1.33v8a3.9,3.9,0,0,0,.68,2.53,2.93,2.93,0,0,0,2.34.8,4.32,4.32,0,0,0,2.26-.64,7.76,7.76,0,0,0,2-1.81v-8.92h1.33v12.32h-1.33Z"/><path class="cls-1" d="M518.68,143.26A7.2,7.2,0,0,1,520,142.1a5.74,5.74,0,0,1,1.22-.65,4.56,4.56,0,0,1,1.13-.28,9.69,9.69,0,0,1,1-.06q4,0,4,4.48v8.15H526v-8a6.12,6.12,0,0,0-.16-1.49,2.42,2.42,0,0,0-.52-1,2.16,2.16,0,0,0-.93-.6,4.36,4.36,0,0,0-1.41-.2,4.23,4.23,0,0,0-2.16.62,9.18,9.18,0,0,0-2.09,1.75v9h-1.33V141.43h1.33Z"/><path class="cls-1" d="M535.11,153.74h-1.33V141.43h1.33Zm0-15.41h-1.33v-2h1.33Z"/><path class="cls-1" d="M545.7,153.86l-.57,0-.57,0a3.52,3.52,0,0,1-1.39-.23,1.7,1.7,0,0,1-.8-.69,2.91,2.91,0,0,1-.36-1.15,13.64,13.64,0,0,1-.08-1.61V142.7h-1.65v-1.27h1.65V138.2h1.33v3.23h2.12v1.27h-2.12v7.64a5.06,5.06,0,0,0,.12,1.22,1.57,1.57,0,0,0,.35.7,1.08,1.08,0,0,0,.58.32,3.81,3.81,0,0,0,.78.07h.32l.3,0Z"/><path class="cls-1" d="M560.37,141.43,555.66,154a19.38,19.38,0,0,1-.88,2,6.84,6.84,0,0,1-1,1.41,3.51,3.51,0,0,1-1.14.86,3.31,3.31,0,0,1-1.39.29l-.52,0-.5,0v-1.37l.28,0h.32a2.8,2.8,0,0,0,2-.75,6.21,6.21,0,0,0,1.43-2.46l-4.92-12.43h1.47L555,152.17l3.87-10.74Z"/></g></g></svg>