<svg xmlns="http://www.w3.org/2000/svg" viewBox="0 0 471.79 381.06"><defs><style>.cls-1{fill:#d1cfd4;}.cls-2{fill:#bebcbf;}.cls-3{fill:#474748;}.cls-4{fill:#fff;}.cls-5{fill:#eae9eb;}.cls-6{fill:#d3d2d6;}.cls-7{fill:#616263;}.cls-8{fill:#d6d674;}.cls-9{fill:#4c4b4b;}.cls-10{fill:#595757;}.cls-11{fill:#eeeeef;}.cls-12{fill:#717071;}.cls-13,.cls-14{fill:#f7f7f7;}.cls-13{stroke:#888;stroke-miterlimit:10;stroke-width:0.18px;}</style></defs><title>pc</title><g id="レイヤー_2" data-name="レイヤー 2"><g id="レイヤー_1-2" data-name="レイヤー 1"><path class="cls-1" d="M276.08,368.18H177.8L185.48,314h83.38Z"/><path class="cls-2" d="M281,381.06H172.3a1.75,1.75,0,0,1-1.47-2.69l6.75-10.54a1.75,1.75,0,0,1,1.47-.81H274.7a1.75,1.75,0,0,1,1.5.85l6.34,10.54a1.75,1.75,0,0,1-1.5,2.65Z"/><path class="cls-3" d="M445.24,0H8.16A8.16,8.16,0,0,0,0,8.16V280.79H453.64c0-4.63-.24-272.64-.24-272.64A8.16,8.16,0,0,0,445.24,0Z"/><path class="cls-4" d="M428.67,23.12H25a.6.6,0,0,0-.59.6v230a.6.6,0,0,0,.59.6H428.67a.6.6,0,0,0,.59-.6v-230A.6.6,0,0,0,428.67,23.12Z"/><path class="cls-5" d="M446.06,316.63H8.31a8.21,8.21,0,0,1-8.19-8.19s0-26.76,0-27.66H453.75v27.66C453.75,313,450.57,316.63,446.06,316.63Z"/><circle class="cls-6" cx="226.94" cy="298.71" r="7.02"/><circle class="cls-7" cx="226.94" cy="11.74" r="2.73"/><circle class="cls-8" cx="416.35" cy="265.7" r="31.29"/><rect class="cls-8" x="65.36" y="40.47" width="87.2" height="87.2"/><path class="cls-9" d="M128.78,79.91a4.1,4.1,0,0,0-.71.07l-14-14.9a3.75,3.75,0,0,0,.12-.95,3.87,3.87,0,0,0-7.74,0,3.75,3.75,0,0,0,.11.9l-2.29,2.37-3.79-3.86L85.14,73.18l5,5.13a4.27,4.27,0,0,0,5.42,5.52l5,5.13,9.89-15.18-3.33-3.39,2.36-2.45a3.76,3.76,0,0,0,.76.08,3.59,3.59,0,0,0,.71-.07l14,14.9a3.83,3.83,0,0,0,.77,3.42l-4.73,15.64H100.14a4.34,4.34,0,1,0,0,8.68h21.38a4.32,4.32,0,0,0,3.4-7l4.85-16a3.87,3.87,0,0,0-1-7.6ZM110.33,66a1.85,1.85,0,1,1,1.85-1.85A1.85,1.85,0,0,1,110.33,66Zm18.45,19.64a1.85,1.85,0,1,1,1.85-1.85A1.85,1.85,0,0,1,128.78,85.63Z"/><path class="cls-9" d="M92.17,88.25a.79.79,0,0,0-.79.79V93.4a.79.79,0,1,0,1.59,0V89A.79.79,0,0,0,92.17,88.25Z"/><path class="cls-9" d="M85.82,81.9A.79.79,0,0,0,85,81.1H80.66a.79.79,0,1,0,0,1.59H85A.79.79,0,0,0,85.82,81.9Z"/><path class="cls-9" d="M86.56,86.39l-3.09,3.08a.79.79,0,1,0,1.12,1.12l3.09-3.09a.79.79,0,0,0-1.12-1.12Z"/><rect class="cls-8" x="183.22" y="40.47" width="87.2" height="87.2"/><path class="cls-9" d="M199.78,61.8v44.53h54.08V61.8Zm49.83,40.29H204V66h45.59Z"/><path class="cls-9" d="M234.22,79a2.37,2.37,0,0,0-4,0l-7.63,11.61-4.21-4.77a2.37,2.37,0,0,0-3.75.27l-7.07,10.77H246Z"/><circle class="cls-9" cx="218.26" cy="76.59" r="4.8"/><rect class="cls-8" x="301.07" y="40.47" width="87.2" height="87.2"/><ellipse class="cls-9" cx="344.67" cy="86.87" rx="4.97" ry="5.01"/><path class="cls-9" d="M367.91,72.93a4.8,4.8,0,0,0-3.41-1.43h-5.22a1.09,1.09,0,0,1-1-.66l-1.56-3.5a4.82,4.82,0,0,0-4.4-2.86H337a4.82,4.82,0,0,0-4.4,2.86h0l-1.56,3.5a1.09,1.09,0,0,1-1,.66h-5.22A4.83,4.83,0,0,0,320,76.35V98.8a4.83,4.83,0,0,0,4.82,4.85H364.5a4.8,4.8,0,0,0,3.41-1.42,4.85,4.85,0,0,0,1.41-3.42V76.35A4.85,4.85,0,0,0,367.91,72.93ZM365.59,98.8a1.12,1.12,0,0,1-.33.8,1.08,1.08,0,0,1-.77.32H324.85a1.07,1.07,0,0,1-.77-.32,1.12,1.12,0,0,1-.33-.8V76.35a1.12,1.12,0,0,1,.33-.8,1.07,1.07,0,0,1,.77-.32h5.22a4.82,4.82,0,0,0,4.4-2.87l1.56-3.5a1.1,1.1,0,0,1,1-.66h15.3a1.1,1.1,0,0,1,1,.65l1.56,3.5a4.82,4.82,0,0,0,4.4,2.87h5.22a1.07,1.07,0,0,1,.77.32,1.12,1.12,0,0,1,.33.8Z"/><path class="cls-9" d="M344.67,75.88A10.84,10.84,0,0,0,337,79.1a11.06,11.06,0,0,0,0,15.54,10.85,10.85,0,0,0,15.44,0,11.06,11.06,0,0,0,0-15.54A10.84,10.84,0,0,0,344.67,75.88Zm5.68,16.75a8,8,0,0,1-11.37,0,8.19,8.19,0,0,1,0-11.5,8,8,0,0,1,11.37,0,8.19,8.19,0,0,1,0,11.5Z"/><rect class="cls-9" x="357.79" y="78.45" width="3.31" height="3.31"/><rect class="cls-8" x="65.36" y="149.82" width="87.2" height="87.2"/><path class="cls-9" d="M129.48,189.67a11.84,11.84,0,0,0-2.2.21l-4.19-12.77a5.44,5.44,0,0,0-5.17-3.75h-5.76v3.09h5.76a2.35,2.35,0,0,1,2.23,1.62l.76,2.33h-7.69a13.63,13.63,0,0,0-6.89,2v5.74h17.1l.89,2.73a11.88,11.88,0,1,0,5.14-1.18ZM135,207.08a7.79,7.79,0,0,1-11-11,7.89,7.89,0,0,1,1.67-1.24l1.41,4.3a3.45,3.45,0,1,0,2.94-.95l-1.41-4.3a7.5,7.5,0,0,1,.89-.09A7.79,7.79,0,0,1,135,207.08Z"/><path class="cls-9" d="M88.45,189.67a11.91,11.91,0,1,0,11.91,11.91A11.91,11.91,0,0,0,88.45,189.67ZM94,207.08a7.79,7.79,0,1,1,2.28-5.51A7.75,7.75,0,0,1,94,207.08Z"/><circle class="cls-9" cx="88.45" cy="201.57" r="3.45"/><path class="cls-9" d="M132.15,187.29v-8.34a8.49,8.49,0,0,0-5.77,2.41v3.53A8.48,8.48,0,0,0,132.15,187.29Z"/><rect class="cls-9" x="133.64" y="178.94" width="1.71" height="8.34"/><path class="cls-9" d="M85.47,188.12h19V182.7H98.66a14.6,14.6,0,0,1-4.55-.73L92,181.3a14.59,14.59,0,0,0-4.55-.73h-2a2,2,0,0,0-1.94,1.95v3.65A2,2,0,0,0,85.47,188.12Z"/><path class="cls-9" d="M120,190.4v-.17H97.69a14.6,14.6,0,0,1,5.41,11.35,1.16,1.16,0,0,0,1.32,1.24h8.86a1.4,1.4,0,0,0,1.53-1.24A14.59,14.59,0,0,1,120,190.4Z"/><rect class="cls-8" x="183.22" y="149.82" width="87.2" height="87.2"/><path class="cls-9" d="M214,192.61l5-7.63s-7.41-2.94-10.86-.3-6.7,9.95-6.7,9.95l3.68,2.13S209.77,187.74,214,192.61Z"/><path class="cls-9" d="M227.63,206.21l7.63-5s2.94,7.41.3,10.86-9.95,6.7-9.95,6.7l-2.13-3.68S232.5,210.47,227.63,206.21Z"/><path class="cls-9" d="M221.93,204l-1.31-1.31c-2.38,6.19-8,4.88-8,4.88s-1.31-5.59,4.88-8l-1.31-1.31c-3.45-.59-7.85,3.57-8.57,7.61a60.42,60.42,0,0,0-.83,7.49,60.17,60.17,0,0,0,7.49-.83C218.36,211.87,222.52,207.47,221.93,204Z"/><path class="cls-9" d="M251.53,168.71c-5.4-2.53-19.07,2.2-26.67,12.28-5.79,7.68-8.89,12.86-8.89,12.86l4.6,4.6,1.22,1.22,4.6,4.6s5.18-3.1,12.86-8.89C249.33,187.78,254.06,174.11,251.53,168.71Zm-22.86,22.87a3.25,3.25,0,1,1,4.6,0A3.25,3.25,0,0,1,228.67,191.58Zm7.63-7.63a4.21,4.21,0,1,1,5.95,0A4.21,4.21,0,0,1,236.29,183.95Z"/><rect class="cls-8" x="301.07" y="149.82" width="87.2" height="87.2"/><path class="cls-10" d="M362.87,180.09h-36.4a3.28,3.28,0,0,0-3.28,3.28v34.72h43V183.37A3.28,3.28,0,0,0,362.87,180.09Zm-28,7.62a5.33,5.33,0,1,1-5.33,5.33A5.33,5.33,0,0,1,334.87,187.71Zm1.13,23.5h-5v-7.43h5Zm7.43,0h-5v-7.43h5Zm7.43,0h-5v-7.43h5Zm7.43,0h-5v-7.43h5Zm-3.83-12.85A5.33,5.33,0,1,1,359.8,193,5.33,5.33,0,0,1,354.47,198.36Z"/><rect class="cls-10" x="367.64" y="191.66" width="3.3" height="9.91"/><rect class="cls-10" x="318.41" y="191.66" width="3.3" height="9.91"/><circle class="cls-10" cx="344.26" cy="171.28" r="5.23"/><rect class="cls-11" x="361.95" y="158.33" width="109.84" height="222.73" rx="4.09" ry="4.09"/><rect class="cls-4" x="370.4" y="190.32" width="92.92" height="159.86"/><path class="cls-12" d="M462.82,190.82V349.68H370.9V190.82h91.92m1-1H369.9V350.68h93.92V189.82Z"/><path class="cls-13" d="M416.86,375.06a8.26,8.26,0,1,0-8.53-8.26A8.41,8.41,0,0,0,416.86,375.06Z"/><path class="cls-14" d="M424.45,179.32a1.59,1.59,0,0,0,1.69-1.5h0a1.59,1.59,0,0,0-1.69-1.5H409.28a1.6,1.6,0,0,0-1.69,1.5h0a1.6,1.6,0,0,0,1.69,1.5Z"/><path class="cls-14" d="M416.87,171.45a2.06,2.06,0,1,0-2.14-2.07A2.1,2.1,0,0,0,416.87,171.45Z"/><rect class="cls-11" x="434.08" y="157.02" width="17.55" height="2.61"/><path class="cls-10" d="M440.66,293.14a3.17,3.17,0,0,1-1.5-.38l-.08,0h0l-.35-.21-.61-.36-3.32-2-1.56-.91-.86-.5-.06,0a6.26,6.26,0,0,0-3.26-.88c-3.62,0-8.86-.59-13.25-3.33a15.82,15.82,0,0,1-1.73-1.26A34.49,34.49,0,0,1,407,284a7.22,7.22,0,0,0-3.77,1l-1,.58-1.75,1-3.73,2.2-.81.48-.24.14h0l-.1.06a3.45,3.45,0,0,1-3.67-.28l-.09-.07a3.4,3.4,0,0,1-1.25-2.63,3.24,3.24,0,0,1,.09-.77h0c.08-.42.34-1.51,1.11-4.77a17.29,17.29,0,0,1-5.08-5.89,19.12,19.12,0,0,1-2.09-9A17.34,17.34,0,0,1,391,252.47c4.06-3.35,9.58-5.12,16-5.12h0c6.59,0,12.22,1.82,16.29,5.27a17.63,17.63,0,0,1,2.44,2.52,29.47,29.47,0,0,1,3.36-.19h0c5.71,0,10.65,1.59,14.3,4.59a15.67,15.67,0,0,1,4.25,5.41h0a15.83,15.83,0,0,1,1.51,6.86,17.16,17.16,0,0,1-1.88,8.07,15.51,15.51,0,0,1-4.49,5.23c.66,2.8.89,3.77,1,4.15h0a3.07,3.07,0,0,1,.08.74,3.17,3.17,0,0,1-1.24,2.49l0,0A3.18,3.18,0,0,1,440.66,293.14Zm-.22-2.75a.44.44,0,0,0,.5,0h0a.46.46,0,0,0,.18-.36.41.41,0,0,0,0-.1l0-.16c-.15-.62-.72-3.08-1.15-4.88l-.22-.91.78-.52a13,13,0,0,0,4.37-4.79,14.5,14.5,0,0,0,1.57-6.82,13.16,13.16,0,0,0-1.25-5.71h0a13,13,0,0,0-3.53-4.48c-3.16-2.6-7.51-4-12.58-4h0a26.34,26.34,0,0,0-3.77.26l-.81.12-.48-.66a15,15,0,0,0-2.49-2.68c-3.58-3-8.61-4.63-14.55-4.63h0c-5.74,0-10.67,1.56-14.24,4.5a14.77,14.77,0,0,0-4,5.09,15,15,0,0,0-1.42,6.48,16.46,16.46,0,0,0,1.78,7.74,14.82,14.82,0,0,0,5,5.45l.78.52-.22.91c-.48,2-1.14,4.83-1.29,5.5h0l0,.15a.56.56,0,0,0,0,.14.69.69,0,0,0,.27.56.71.71,0,0,0,.74.06l.26-.15.82-.48,3.73-2.2,1.76-1,1-.59h0A9.9,9.9,0,0,1,407,281.3a31.3,31.3,0,0,0,7.18-.8l.69-.17.53.48a13.14,13.14,0,0,0,1.88,1.43c3.85,2.4,8.56,2.91,11.83,2.92a8.94,8.94,0,0,1,4.61,1.25l0,0,.89.52,1.57.92,3.32,2Z"/><circle class="cls-9" cx="409.69" cy="269.09" r="1.84"/><circle class="cls-9" cx="416.86" cy="269.09" r="1.84"/><circle class="cls-9" cx="424.03" cy="269.09" r="1.84"/></g></g></svg>